<svg width="132" height="80" viewBox="0 0 132 80" fill="none" xmlns="http://www.w3.org/2000/svg">
<g clip-path="url(#clip0_89_32)">
<path d="M49.7164 41.8235L49.0458 43.7211H48.9899C48.8781 43.2932 48.6732 42.6421 48.3379 41.8607L44.7425 32.8374H41.2217V47.2188H43.5503V38.3444C43.5503 37.7863 43.5503 37.1537 43.5316 36.3723C43.513 35.9816 43.4758 35.6839 43.4571 35.4607H43.513C43.6248 36.0188 43.7552 36.4281 43.8483 36.6886L48.1702 47.1816H49.8095L54.0941 36.5956C54.1873 36.3537 54.2804 35.87 54.3736 35.4607H54.4295C54.3736 36.5211 54.3363 37.47 54.3177 38.0467V47.163H56.7953V32.8002H53.4049L49.7164 41.8235V41.8235ZM59.1425 36.856H61.5643V47.163H59.1425V36.856ZM60.372 32.5025C59.9622 32.5025 59.6269 32.6514 59.3474 32.9118C59.068 33.1723 58.919 33.5072 58.919 33.9165C58.919 34.3072 59.068 34.6421 59.3474 34.9025C59.6269 35.163 59.9622 35.2932 60.372 35.2932C60.7819 35.2932 61.1358 35.1444 61.3966 34.9025C61.676 34.6421 61.8251 34.3072 61.8251 33.9165C61.8251 33.5258 61.676 33.1909 61.3966 32.9118C61.1544 32.6514 60.8005 32.5025 60.372 32.5025V32.5025ZM70.1521 36.763C69.705 36.67 69.2393 36.6142 68.7922 36.6142C67.6931 36.6142 66.6872 36.856 65.8489 37.3397C65.0106 37.8235 64.3399 38.4932 63.9115 39.3304C63.4644 40.1863 63.2408 41.1723 63.2408 42.3072C63.2408 43.2932 63.4644 44.1676 63.8929 44.9676C64.3213 45.749 64.9174 46.3816 65.7185 46.8095C66.4823 47.2374 67.3764 47.4607 68.3824 47.4607C69.5374 47.4607 70.5247 47.2188 71.3071 46.7723L71.3257 46.7537V44.5211L71.2326 44.5955C70.8786 44.856 70.4688 45.0793 70.059 45.2095C69.6305 45.3583 69.2393 45.4328 68.904 45.4328C67.9353 45.4328 67.1715 45.1537 66.6313 44.5397C66.0724 43.9444 65.793 43.1258 65.793 42.1025C65.793 41.0421 66.0724 40.2049 66.6499 39.5909C67.2274 38.9769 67.9912 38.6607 68.9226 38.6607C69.705 38.6607 70.5061 38.9211 71.2326 39.4421L71.3257 39.5165V37.1537L71.3071 37.1351C70.9904 37.0049 70.6365 36.856 70.1521 36.763V36.763ZM78.1438 36.6886C77.5477 36.6886 76.9889 36.8746 76.5045 37.2653C76.0947 37.6002 75.8153 38.0839 75.5731 38.6607H75.5544V36.856H73.1327V47.163H75.5544V41.8979C75.5544 41.0049 75.7407 40.2607 76.1506 39.7211C76.5604 39.163 77.082 38.8839 77.7154 38.8839C77.9389 38.8839 78.1625 38.9397 78.4419 38.9769C78.7027 39.0514 78.889 39.1258 79.0194 39.2188L79.1125 39.2932V36.8746L79.0567 36.856C78.889 36.7444 78.5537 36.6886 78.1438 36.6886V36.6886ZM84.7384 36.6328C83.0432 36.6328 81.6833 37.1351 80.7332 38.1211C79.7645 39.1072 79.2988 40.4653 79.2988 42.1769C79.2988 43.7769 79.7832 45.0793 80.7146 46.0281C81.646 46.9583 82.9128 47.4421 84.4962 47.4421C86.1542 47.4421 87.4768 46.9397 88.4269 45.9351C89.3956 44.9304 89.8613 43.5909 89.8613 41.9351C89.8613 40.2979 89.4142 38.9956 88.5014 38.0467C87.6259 37.0979 86.3405 36.6328 84.7384 36.6328V36.6328ZM86.6758 44.5583C86.2287 45.1351 85.5208 45.4142 84.6453 45.4142C83.7697 45.4142 83.0618 45.1351 82.5589 44.5211C82.0559 43.9444 81.8137 43.1072 81.8137 42.0467C81.8137 40.949 82.0745 40.1118 82.5589 39.5165C83.0618 38.9211 83.7511 38.6235 84.6266 38.6235C85.4836 38.6235 86.1542 38.9025 86.6385 39.4793C87.1229 40.056 87.3837 40.8932 87.3837 41.9909C87.3464 43.1072 87.1415 43.9816 86.6758 44.5583V44.5583ZM95.2637 41.1351C94.4999 40.8188 94.0155 40.5769 93.792 40.3723C93.6057 40.1863 93.5126 39.9258 93.5126 39.5909C93.5126 39.3118 93.6243 39.0328 93.9038 38.8467C94.1832 38.6607 94.4999 38.5676 94.9656 38.5676C95.3754 38.5676 95.8039 38.6421 96.2137 38.7537C96.6236 38.8653 96.9961 39.0328 97.2942 39.256L97.3873 39.3304V37.0607L97.3314 37.0421C97.052 36.9304 96.6794 36.8188 96.2324 36.7258C95.7853 36.6514 95.3754 36.6142 95.0401 36.6142C93.8851 36.6142 92.9351 36.8932 92.1899 37.5072C91.4448 38.0839 91.0908 38.8653 91.0908 39.7769C91.0908 40.2607 91.1653 40.6886 91.333 41.0421C91.5007 41.3956 91.7428 41.7304 92.0781 42.0095C92.4135 42.27 92.8978 42.5676 93.5684 42.8467C94.1273 43.0886 94.5558 43.2746 94.8166 43.4235C95.0774 43.5723 95.245 43.7397 95.3754 43.87C95.4686 44.0188 95.5245 44.2049 95.5245 44.4467C95.5245 45.1351 95.0029 45.47 93.941 45.47C93.5312 45.47 93.1027 45.3955 92.5997 45.2281C92.0968 45.0607 91.6311 44.8188 91.2399 44.5397L91.1467 44.4653V46.8281L91.2026 46.8467C91.5565 47.0142 91.985 47.1258 92.5066 47.256C93.0282 47.349 93.4939 47.4235 93.9038 47.4235C95.1519 47.4235 96.1765 47.1444 96.903 46.5304C97.6481 45.9351 98.0393 45.1723 98.0393 44.1862C98.0393 43.4979 97.8531 42.8839 97.4432 42.4188C96.903 41.9723 96.2324 41.5072 95.2637 41.1351V41.1351ZM104.429 36.6328C102.734 36.6328 101.374 37.1351 100.424 38.1211C99.4738 39.1072 98.9894 40.4653 98.9894 42.1769C98.9894 43.7769 99.4738 45.0793 100.405 46.0281C101.337 46.9583 102.603 47.4421 104.187 47.4421C105.845 47.4421 107.167 46.9397 108.117 45.9351C109.086 44.9304 109.552 43.5909 109.552 41.9351C109.552 40.2979 109.105 38.9956 108.192 38.0467C107.316 37.0979 106.031 36.6328 104.429 36.6328V36.6328ZM106.348 44.5583C105.901 45.1351 105.193 45.4142 104.317 45.4142C103.423 45.4142 102.734 45.1351 102.231 44.5211C101.728 43.9444 101.486 43.1072 101.486 42.0467C101.486 40.949 101.746 40.1118 102.231 39.5165C102.734 38.9211 103.423 38.6235 104.299 38.6235C105.137 38.6235 105.826 38.9025 106.311 39.4793C106.795 40.056 107.056 40.8932 107.056 41.9909C107.056 43.1072 106.813 43.9816 106.348 44.5583V44.5583ZM122.499 38.8467V36.856H120.059V33.8049L119.984 33.8235L117.674 34.5118L117.618 34.5304V36.856H113.967V35.5537C113.967 34.9583 114.116 34.4932 114.377 34.1956C114.638 33.8979 115.029 33.749 115.513 33.749C115.848 33.749 116.202 33.8235 116.594 33.9909L116.687 34.0467V31.9444L116.631 31.9258C116.296 31.8142 115.848 31.7397 115.271 31.7397C114.544 31.7397 113.911 31.9072 113.334 32.1863C112.756 32.5025 112.328 32.9304 112.011 33.5072C111.694 34.0653 111.527 34.6979 111.527 35.4235V36.856H109.831V38.8281H111.527V47.163H113.967V38.8467H117.618V44.149C117.618 46.3258 118.643 47.4235 120.692 47.4235C121.027 47.4235 121.381 47.3676 121.716 47.3118C122.07 47.2374 122.331 47.1444 122.48 47.07L122.499 47.0514V45.0607L122.406 45.1351C122.257 45.2281 122.126 45.3025 121.903 45.3583C121.716 45.4142 121.549 45.4328 121.418 45.4328C120.934 45.4328 120.599 45.3211 120.357 45.0421C120.133 44.7816 120.021 44.3537 120.021 43.7211V38.8467H122.499V38.8467Z" fill="#737373"/>
<path d="M10 28H21.4194V39.4047H10V28Z" fill="#F25022"/>
<path d="M22.6113 28H34.0307V39.4047H22.6113V28Z" fill="#7FBA00"/>
<path d="M10 40.5953H21.4194V52H10V40.5953Z" fill="#00A4EF"/>
<path d="M22.6113 40.5953H34.0307V52H22.6113V40.5953Z" fill="#FFB900"/>
</g>
<defs>
<clipPath id="clip0_89_32">
<rect width="112.518" height="24" fill="white" transform="translate(10 28)"/>
</clipPath>
</defs>
</svg>
