<svg width="132" height="80" viewBox="0 0 132 80" fill="none" xmlns="http://www.w3.org/2000/svg">
<path d="M53.6245 46.1711H50.4102V58.677H53.6245V46.1711Z" fill="#00BCEB"/>
<path d="M79.0183 49.6984C78.8576 49.6984 77.8933 49.0571 76.4469 49.0571C74.3576 49.0571 73.0719 50.5001 73.0719 52.4241C73.0719 54.348 74.3576 55.791 76.4469 55.791C77.8933 55.791 79.0183 55.1497 79.0183 55.1497V58.5167C78.6969 58.677 77.5719 58.9977 76.1254 58.9977C72.5897 58.9977 69.5361 56.5927 69.5361 52.5844C69.5361 48.8968 72.429 46.1711 76.1254 46.1711C77.5719 46.1711 78.6969 46.4918 79.0183 46.6521V49.6984Z" fill="#00BCEB"/>
<path d="M46.0711 49.6984C45.9103 49.6984 44.9461 49.0571 43.4996 49.0571C41.4103 49.0571 40.1246 50.5001 40.1246 52.4241C40.1246 54.348 41.4103 55.791 43.4996 55.791C44.9461 55.791 46.0711 55.1497 46.0711 55.1497V58.5167C45.7496 58.677 44.6246 58.9977 43.1782 58.9977C39.6425 58.9977 36.5889 56.5927 36.5889 52.5844C36.5889 48.8968 39.4817 46.1711 43.1782 46.1711C44.6246 46.1711 45.7496 46.4918 46.0711 46.6521V49.6984Z" fill="#00BCEB"/>
<path d="M95.5722 52.4194C95.5722 55.9467 92.84 58.8326 88.9829 58.8326C85.1257 58.8326 82.3936 55.9467 82.3936 52.4194C82.3936 48.8921 85.1257 46.0061 88.9829 46.0061C92.84 46.0061 95.5722 48.8921 95.5722 52.4194ZM88.9829 49.2127C87.0543 49.2127 85.7686 50.6557 85.7686 52.4194C85.7686 54.183 87.215 55.7863 88.9829 55.7863C90.9115 55.7863 92.1972 54.3433 92.1972 52.4194C92.1972 50.6557 90.7507 49.2127 88.9829 49.2127Z" fill="#00BCEB"/>
<path d="M65.5165 49.0524C65.5165 49.0524 64.0701 48.7317 63.1058 48.7317C61.8201 48.7317 61.1772 49.2127 61.1772 49.6937C61.1772 50.4954 62.1415 50.6557 62.6236 50.816L63.4272 51.1367C65.5165 51.778 66.4808 53.221 66.4808 54.664C66.4808 57.8706 63.7486 58.8326 61.3379 58.8326C59.7308 58.8326 58.1236 58.512 57.9629 58.512V55.626C58.2843 55.626 59.57 56.107 61.0165 56.107C62.6236 56.107 63.2665 55.626 63.2665 54.9847C63.2665 54.3433 62.6236 54.0227 61.82 53.702C61.6593 53.702 61.3379 53.5417 61.1772 53.5417C59.4093 53.0607 57.9629 51.9384 57.9629 49.8541C57.9629 47.4491 59.7308 46.0061 62.6236 46.0061C64.2308 46.0061 65.6772 46.3268 65.6772 46.3268V49.0524H65.5165Z" fill="#00BCEB"/>
<path d="M33.2143 32.7052C33.2143 31.9036 32.5714 31.1019 31.6072 31.1019C30.8036 31.1019 30 31.7433 30 32.7052V35.9119C30 36.7135 30.6429 37.5152 31.6072 37.5152C32.4107 37.5152 33.2143 36.8739 33.2143 35.9119V32.7052Z" fill="#00BCEB"/>
<path d="M41.892 28.5376C41.892 27.736 41.2492 26.9343 40.2849 26.9343C39.4813 26.9343 38.6777 27.5757 38.6777 28.5376V36.0732C38.6777 36.8749 39.3206 37.6765 40.2849 37.6765C41.0885 37.6765 41.892 37.0352 41.892 36.0732V28.5376Z" fill="#00BCEB"/>
<path d="M50.4106 22.6033C50.4106 21.8017 49.7677 21 48.8034 21C47.9999 21 47.1963 21.6413 47.1963 22.6033V39.1175C47.1963 39.9191 47.8391 40.7208 48.8034 40.7208C49.607 40.7208 50.4106 40.0794 50.4106 39.1175V22.6033Z" fill="#00BCEB"/>
<path d="M59.0903 28.5376C59.0903 27.736 58.4474 26.9343 57.4831 26.9343C56.6796 26.9343 55.876 27.5757 55.876 28.5376V36.0732C55.876 36.8749 56.5188 37.6765 57.4831 37.6765C58.2867 37.6765 59.0903 37.0352 59.0903 36.0732V28.5376Z" fill="#00BCEB"/>
<path d="M67.6079 32.7052C67.6079 31.9036 66.965 31.1019 66.0007 31.1019C65.1971 31.1019 64.3936 31.7433 64.3936 32.7052V35.9119C64.3936 36.7135 65.0364 37.5152 66.0007 37.5152C66.8043 37.5152 67.6079 36.8739 67.6079 35.9119V32.7052Z" fill="#00BCEB"/>
<path d="M76.2856 28.5376C76.2856 27.736 75.6427 26.9343 74.6784 26.9343C73.8749 26.9343 73.0713 27.5757 73.0713 28.5376V36.0732C73.0713 36.8749 73.7141 37.6765 74.6784 37.6765C75.482 37.6765 76.2856 37.0352 76.2856 36.0732V28.5376Z" fill="#00BCEB"/>
<path d="M84.8041 22.6033C84.8041 21.8017 84.1613 21 83.197 21C82.3934 21 81.5898 21.6413 81.5898 22.6033V39.1175C81.5898 39.9191 82.2327 40.7208 83.197 40.7208C84.0006 40.7208 84.8041 40.0794 84.8041 39.1175V22.6033Z" fill="#00BCEB"/>
<path d="M93.4819 28.5376C93.4819 27.736 92.839 26.9343 91.8747 26.9343C91.0712 26.9343 90.2676 27.5757 90.2676 28.5376V36.0732C90.2676 36.8749 90.9104 37.6765 91.8747 37.6765C92.6783 37.6765 93.4819 37.0352 93.4819 36.0732V28.5376Z" fill="#00BCEB"/>
<path d="M102 32.7052C102 31.9036 101.358 31.1019 100.393 31.1019C99.5897 31.1019 98.7861 31.7433 98.7861 32.7052V35.9119C98.7861 36.7135 99.429 37.5152 100.393 37.5152C101.197 37.5152 102 36.8739 102 35.9119V32.7052Z" fill="#00BCEB"/>
</svg>
