<svg width="132" height="80" viewBox="0 0 132 80" fill="none" xmlns="http://www.w3.org/2000/svg">
<path d="M66.6063 47.3953H64.0965L59.7909 41.5705L55.4854 47.3953H52.9756L58.5462 39.8891L53.4041 32.9633H55.9139L59.7909 38.1877L63.668 32.9633H66.1778L61.0561 39.8891L66.6063 47.3953ZM79.6045 43.2919C79.6045 44.553 79.176 45.5738 78.3394 46.2944C77.5028 47.015 76.258 47.3953 74.6868 47.3953H67.7898V40.97H64.5046L65.8717 39.1284H67.7898V32.9633H74.4011C75.8907 32.9633 77.0334 33.3036 77.8292 34.0042C78.625 34.6848 79.0127 35.6055 79.0127 36.7265C79.0127 38.1076 78.3802 39.1685 77.1151 39.849C77.9313 40.1493 78.5638 40.6097 78.9719 41.2102C79.38 41.8107 79.6045 42.5113 79.6045 43.2919ZM70.0344 39.1284H74.2583C75.1153 39.1284 75.7479 38.9483 76.1764 38.568C76.6049 38.2077 76.809 37.6472 76.809 36.9066C76.809 36.2661 76.5845 35.7657 76.156 35.4054C75.7071 35.0451 75.0745 34.8649 74.2583 34.8649H70.0344V39.1284ZM77.3395 43.2519C77.3395 42.4912 77.1151 41.9108 76.6457 41.5304C76.1764 41.1501 75.4826 40.95 74.5644 40.95H70.0344V45.4737H74.5644C75.4622 45.4737 76.156 45.2735 76.6253 44.8932C77.0946 44.5329 77.3395 43.9725 77.3395 43.2519ZM94.7248 40.1893C94.7248 41.3103 94.5616 42.3311 94.2351 43.2319C93.9086 44.1326 93.4189 44.9533 92.7659 45.6339C92.1129 46.3344 91.3375 46.8549 90.4805 47.1951C89.6235 47.5354 88.644 47.7156 87.5626 47.7156C86.4811 47.7156 85.5016 47.5354 84.6242 47.1951C83.7672 46.8549 82.9918 46.3144 82.3592 45.6339C81.7062 44.9533 81.1961 44.1326 80.8696 43.2319C80.5431 42.3311 80.3799 41.2902 80.3799 40.1693C80.3799 39.0484 80.5431 38.0275 80.8696 37.1268C81.1961 36.226 81.7062 35.4054 82.3592 34.7048C83.0122 34.0242 83.7672 33.5038 84.6242 33.1435C85.4812 32.8032 86.4811 32.623 87.5626 32.623C88.6236 32.623 89.6031 32.8032 90.4805 33.1435C91.3375 33.4838 92.1129 34.0042 92.7659 34.7048C93.4189 35.4054 93.9086 36.226 94.2351 37.1268C94.5616 38.0476 94.7248 39.0684 94.7248 40.1893ZM82.6857 40.1893C82.6857 41.8907 83.1346 43.2519 84.012 44.2327C84.8895 45.2335 86.073 45.7339 87.5422 45.7339C89.0113 45.7339 90.1948 45.2335 91.0723 44.2327C91.9497 43.2519 92.3782 41.8907 92.3782 40.1893C92.3782 38.4879 91.9293 37.1068 91.0723 36.126C90.1948 35.1451 88.9909 34.6447 87.5422 34.6447C86.0934 34.6447 84.8895 35.1451 84.012 36.126C83.1346 37.1268 82.6857 38.5079 82.6857 40.1893ZM101.826 39.8891L106.948 32.9633H104.438L100.561 38.1877L96.6837 32.9633H94.1739L99.2956 39.8891L93.725 47.3953H96.2552L100.561 41.5705L104.866 47.3953H107.376L101.826 39.8891Z" fill="#107C10"/>
<path d="M36.2432 37.628C36.2636 37.628 36.284 37.648 36.284 37.648C39.9365 40.3703 46.2214 47.1359 44.3033 49.0375C42.1403 50.879 39.3244 51.9999 36.2432 51.9999C33.162 51.9999 30.346 50.879 28.1831 49.0375C26.265 47.1359 32.5498 40.3703 36.2024 37.648C36.2024 37.648 36.2228 37.628 36.2432 37.628ZM42.6096 29.7615C40.7323 28.6605 38.7122 28 36.2228 28C33.7537 28 31.7132 28.6605 29.8359 29.7615C29.8155 29.7815 29.7951 29.8015 29.8155 29.8215C29.8359 29.8415 29.8563 29.8415 29.8767 29.8415C32.2437 29.3411 35.8555 31.3428 36.1819 31.5429H36.2024C36.2228 31.5429 36.2228 31.5429 36.2228 31.5429C36.5697 31.3428 40.161 29.3411 42.528 29.8415C42.5484 29.8415 42.5688 29.8415 42.5892 29.8215C42.6504 29.7815 42.63 29.7615 42.6096 29.7615ZM27.673 31.4429C27.6525 31.4629 27.6321 31.4629 27.6117 31.4829C25.3875 33.6647 24 36.6672 24 40.01C24 42.7522 24.9386 45.2743 26.5098 47.276C26.5303 47.296 26.5507 47.316 26.5711 47.296C26.5915 47.276 26.5915 47.256 26.5915 47.236C25.6528 44.4136 30.4277 37.5479 32.8967 34.6655C32.8967 34.6655 32.9171 34.6455 32.9171 34.6255C32.9171 34.6055 32.9171 34.6055 32.8967 34.5855C29.1421 30.9424 27.877 31.3428 27.673 31.4429ZM39.5896 34.5855C39.5692 34.6055 39.5692 34.6055 39.5692 34.6255C39.5692 34.6455 39.5692 34.6455 39.5896 34.6655C42.0587 37.5479 46.8335 44.4136 45.8949 47.236C45.8949 47.256 45.8949 47.276 45.9153 47.296C45.9357 47.316 45.9561 47.296 45.9765 47.276C47.5477 45.2543 48.4863 42.7322 48.4863 40.01C48.4863 36.6672 47.0988 33.6647 44.8746 31.4829C44.8542 31.4629 44.8338 31.4429 44.8134 31.4429C44.6093 31.3428 43.3442 30.9424 39.5896 34.5855Z" fill="#107C10"/>
</svg>
