<svg width="132" height="80" viewBox="0 0 132 80" fill="none" xmlns="http://www.w3.org/2000/svg">
<path fill-rule="evenodd" clip-rule="evenodd" d="M75.6281 47.5807C70.5851 51.1146 63.2756 53 56.9822 53C48.1578 53 40.2136 49.8971 34.2035 44.7364C33.7314 44.3305 34.1545 43.7775 34.7211 44.0936C41.2071 47.6813 49.2269 49.8396 57.511 49.8396C63.098 49.8396 69.2441 48.7407 74.8953 46.4602C75.749 46.1155 76.4629 46.9917 75.6281 47.5807" fill="#FF9900"/>
<path fill-rule="evenodd" clip-rule="evenodd" d="M78.3027 45.4077C77.5589 44.536 73.3669 44.9958 71.4853 45.1998C70.9121 45.2638 70.8247 44.8079 71.341 44.4801C74.6796 42.3329 80.158 42.9527 80.7968 43.6724C81.4356 44.3961 80.6305 49.4141 77.4931 51.8092C77.0118 52.1771 76.5523 51.9812 76.7668 51.4933C77.4713 49.886 79.0509 46.2834 78.3027 45.4077" fill="#FF9900"/>
<path fill-rule="evenodd" clip-rule="evenodd" d="M72.4443 29.9582V27.9156C72.4443 27.6065 72.6768 27.3991 72.9557 27.3991H82.0095C82.3001 27.3991 82.5326 27.6104 82.5326 27.9156V29.6647C82.5286 29.9582 82.2846 30.3416 81.8507 30.9481L77.1592 37.7136C78.9025 37.6706 80.7427 37.9327 82.3233 38.8327C82.6798 39.0361 82.7766 39.3336 82.8037 39.627V41.8065C82.8037 42.1039 82.4783 42.4521 82.1374 42.2721C79.3519 40.797 75.6521 40.6366 72.5722 42.2878C72.2584 42.46 71.9291 42.1156 71.9291 41.8183V39.7483C71.9291 39.4157 71.9329 38.8484 72.2622 38.3436L77.6976 30.4708H72.9673C72.6768 30.4708 72.4443 30.2634 72.4443 29.9582V29.9582ZM39.4176 42.7025H36.663C36.3996 42.683 36.1904 42.4835 36.171 42.2291V27.9509C36.171 27.6652 36.4073 27.4382 36.7017 27.4382H39.2703C39.5376 27.4499 39.7507 27.6574 39.7701 27.9155V29.7821H39.8205C40.4906 27.9783 41.7497 27.1371 43.4466 27.1371C45.1705 27.1371 46.2476 27.9783 47.0224 29.7821C47.6888 27.9783 49.2036 27.1371 50.8268 27.1371C51.9813 27.1371 53.2443 27.6184 54.0152 28.6983C54.8868 29.8995 54.7087 31.6447 54.7087 33.1747L54.7047 42.1861C54.7047 42.4718 54.4685 42.7026 54.174 42.7026H51.4234C51.1484 42.6831 50.9275 42.4601 50.9275 42.1861V34.6185C50.9275 34.0159 50.9818 32.5132 50.8501 31.9421C50.6447 30.9834 50.0288 30.7133 49.2306 30.7133C48.5643 30.7133 47.867 31.1633 47.5841 31.8834C47.3014 32.6034 47.3285 33.8085 47.3285 34.6185V42.186C47.3285 42.4717 47.0921 42.7025 46.7977 42.7025H44.0471C43.7682 42.683 43.5512 42.46 43.5512 42.186L43.5473 34.6185C43.5473 33.0259 43.8069 30.6821 41.8505 30.6821C39.8708 30.6821 39.9483 32.9672 39.9483 34.6185V42.186C39.9483 42.4717 39.712 42.7025 39.4176 42.7025V42.7025ZM90.3273 27.137C94.4144 27.137 96.6266 30.6821 96.6266 35.1898C96.6266 39.5448 94.182 43 90.3272 43C86.3136 43 84.1287 39.4549 84.1287 35.0371C84.1287 30.5921 86.3408 27.137 90.3273 27.137V27.137ZM90.3505 30.0521C88.3204 30.0521 88.1926 32.8459 88.1926 34.5871C88.1926 36.3324 88.1655 40.0574 90.3273 40.0574C92.4619 40.0574 92.5626 37.0523 92.5626 35.221C92.5626 34.0159 92.5122 32.5759 92.1519 31.4334C91.842 30.4394 91.2261 30.0521 90.3506 30.0521H90.3505ZM101.926 42.7025H99.1835C98.9085 42.683 98.6876 42.46 98.6876 42.186L98.6837 27.9039C98.7069 27.6417 98.9356 27.4382 99.2144 27.4382H101.768C102.008 27.4499 102.205 27.6144 102.259 27.8373V30.0208H102.31C103.081 28.0683 104.162 27.137 106.064 27.137C107.3 27.137 108.505 27.5869 109.279 28.8195C110 29.962 110 31.8834 110 33.2646V42.2526C109.969 42.503 109.74 42.7025 109.469 42.7025H106.707C106.455 42.683 106.246 42.4952 106.219 42.2526V34.4971C106.219 32.9359 106.397 30.6507 104.495 30.6507C103.825 30.6507 103.209 31.1046 102.903 31.7933C102.515 32.666 102.465 33.5346 102.465 34.4972V42.186C102.461 42.4717 102.221 42.7025 101.926 42.7025V42.7025ZM65.2269 35.8824C65.2269 36.9662 65.254 37.8702 64.7115 38.8326C64.2738 39.6153 63.5765 40.0965 62.8055 40.0965C61.7479 40.0965 61.1281 39.2827 61.1281 38.0814C61.1281 35.7101 63.2317 35.2797 65.2269 35.2797V35.8824V35.8824ZM68.0045 42.6634C67.8225 42.8278 67.5591 42.8395 67.3538 42.73C66.4395 41.963 66.2729 41.6069 65.7731 40.8752C64.2622 42.4326 63.1891 42.8982 61.2326 42.8982C58.912 42.8982 57.1106 41.4543 57.1106 38.5628C57.1106 36.305 58.3193 34.7672 60.0471 34.0159C61.5426 33.3507 63.6307 33.2333 65.2269 33.0494V32.6894C65.2269 32.0281 65.2772 31.2455 64.8898 30.6742C64.5567 30.1617 63.9135 29.9503 63.3441 29.9503C62.2941 29.9503 61.3605 30.4942 61.132 31.6212C61.0854 31.8716 60.9033 32.1181 60.6515 32.1298L57.9823 31.8403C57.7576 31.7894 57.5058 31.6055 57.5716 31.2573C58.1838 27.9861 61.1126 27 63.7316 27C65.072 27 66.8231 27.36 67.8808 28.3852C69.2211 29.6491 69.0933 31.3355 69.0933 33.1707V37.5062C69.0933 38.8092 69.628 39.3804 70.1316 40.0848C70.306 40.3353 70.3446 40.6366 70.12 40.8244C69.5582 41.2978 68.5587 42.1782 68.0086 42.6713L68.0047 42.6634H68.0045ZM29.1163 35.8824C29.1163 36.9662 29.1434 37.8702 28.601 38.8326C28.1633 39.6153 27.4698 40.0965 26.6949 40.0965C25.6373 40.0965 25.0213 39.2827 25.0213 38.0814C25.0213 35.7101 27.125 35.2797 29.1163 35.2797V35.8824ZM31.894 42.6634C31.712 42.8278 31.4485 42.8395 31.2432 42.73C30.3289 41.963 30.1661 41.6069 29.6625 40.8752C28.1516 42.4326 27.0824 42.8982 25.122 42.8982C22.8054 42.8982 21 41.4543 21 38.5628C21 36.305 22.2126 34.7672 23.9366 34.0159C25.432 33.3507 27.5201 33.2333 29.1163 33.0494V32.6894C29.1163 32.0281 29.1666 31.2455 28.783 30.6742C28.446 30.1617 27.803 29.9503 27.2373 29.9503C26.1875 29.9503 25.2499 30.4942 25.0213 31.6212C24.9748 31.8716 24.7927 32.1181 24.5448 32.1298L21.8717 31.8403C21.6469 31.7894 21.3991 31.6055 21.461 31.2573C22.077 27.9861 25.002 27 27.6209 27C28.9612 27 30.7124 27.36 31.7701 28.3852C33.1104 29.6491 32.9826 31.3355 32.9826 33.1707V37.5062C32.9826 38.8092 33.5172 39.3804 34.0209 40.0848C34.1991 40.3353 34.2379 40.6366 34.0131 40.8244C33.4514 41.2978 32.4519 42.1782 31.9018 42.6713L31.894 42.6634" fill="black"/>
</svg>
