<svg width="132" height="80" viewBox="0 0 132 80" fill="none" xmlns="http://www.w3.org/2000/svg">
<path d="M32.0844 26H32.8848C35.6633 26.0576 38.3966 27.1227 40.3597 29.0082C39.6349 29.7135 38.8949 30.3899 38.1852 31.0952C37.0828 30.1453 35.7539 29.4112 34.3043 29.1521C32.16 28.7203 29.8495 29.1089 28.0525 30.2748C26.0894 31.4982 24.7605 33.5709 24.4736 35.7874C24.1565 37.9752 24.8058 40.2781 26.3008 41.9765C27.7354 43.6317 29.925 44.668 32.1902 44.74C34.3043 44.8552 36.509 44.2363 38.0493 42.8257C39.2573 41.8326 39.8161 40.3213 39.9973 38.8532C37.4905 38.8532 34.9838 38.8676 32.4771 38.8532V35.8882H43.0325C43.5762 39.0691 42.7909 42.653 40.254 44.9271C38.5627 46.5392 36.2221 47.4891 33.8361 47.6762C31.5257 47.8921 29.1398 47.4747 27.0861 46.4096C24.6246 45.1574 22.6615 43.0416 21.6951 40.5516C20.789 38.2631 20.7739 35.6723 21.6196 33.3693C22.3897 31.2679 23.8696 29.4112 25.7723 28.1158C27.5995 26.8348 29.8193 26.1295 32.0844 26Z" fill="#3780FF"/>
<path d="M92.6318 26.7449H95.8634V47.2984C94.7912 47.2984 93.704 47.3128 92.6318 47.284C92.6469 40.4472 92.6318 33.5961 92.6318 26.7449V26.7449Z" fill="#38B137"/>
<path d="M50.2228 33.87C52.2162 33.5102 54.3756 33.9132 56.0216 35.0502C57.5166 36.0578 58.5585 37.641 58.8756 39.3682C59.2834 41.3689 58.7699 43.5567 57.4109 45.1399C55.9461 46.9103 53.545 47.8602 51.2044 47.7163C49.0601 47.6012 46.9761 46.5792 45.7077 44.9096C44.2731 43.0673 43.9258 40.5341 44.711 38.3751C45.4963 36.0578 47.7161 34.2874 50.2228 33.87V33.87ZM50.6759 36.6047C49.8604 36.8062 49.1054 37.2524 48.5617 37.8857C47.097 39.5553 47.1876 42.2757 48.8034 43.8301C49.7245 44.7225 51.1138 45.1399 52.3974 44.8952C53.5903 44.6937 54.6323 43.9309 55.2061 42.9233C56.2028 41.2106 55.9159 38.8501 54.3907 37.5115C53.4091 36.6479 51.9745 36.2881 50.6759 36.6047Z" fill="#FA3913"/>
<path d="M66.2249 33.871C68.5051 33.4536 70.9968 34.0582 72.7032 35.5838C75.4817 37.9587 75.7837 42.4062 73.4129 45.141C71.9783 46.8682 69.6528 47.8181 67.3575 47.7174C65.1678 47.6598 63.0084 46.6235 61.7098 44.9107C60.245 43.0252 59.9279 40.4344 60.7584 38.2322C61.589 35.9869 63.7635 34.2741 66.2249 33.871V33.871ZM66.6779 36.6058C65.8625 36.8073 65.1074 37.2535 64.5638 37.8724C63.1141 39.5132 63.1745 42.1903 64.7299 43.7592C65.6511 44.6948 67.0856 45.1554 68.4145 44.8963C69.5924 44.6804 70.6494 43.9319 71.2233 42.9244C72.2048 41.1972 71.9179 38.8367 70.3776 37.4981C69.3961 36.6346 67.9615 36.2891 66.6779 36.6058Z" fill="#FCBD06"/>
<path d="M79.8041 34.7063C81.5407 33.67 83.8511 33.3821 85.7236 34.2745C86.3125 34.5192 86.7957 34.9366 87.2639 35.354C87.279 34.9654 87.2639 34.5624 87.279 34.1594C88.2907 34.1738 89.3025 34.1594 90.3293 34.1738V46.8686C90.3142 48.7829 89.8008 50.8124 88.3511 52.2085C86.7655 53.7486 84.3343 54.2236 82.1447 53.9069C79.8041 53.5759 77.7655 51.9494 76.8594 49.8912C77.7655 49.4738 78.7168 49.1428 79.6531 48.7541C80.1816 49.9344 81.2538 50.9419 82.5977 51.1722C83.9417 51.4025 85.4971 51.0859 86.3729 50.0207C87.3092 48.9269 87.3092 47.43 87.2639 46.0914C86.5692 46.7391 85.7689 47.3148 84.8024 47.5307C82.7034 48.0921 80.393 47.4012 78.7772 46.0482C77.1463 44.6952 76.1799 42.6082 76.2705 40.5356C76.3158 38.1895 77.7051 35.9297 79.8041 34.7063V34.7063ZM82.9299 36.5486C82.0088 36.6926 81.148 37.1819 80.5591 37.8584C79.1396 39.4705 79.1396 42.0469 80.5742 43.6301C81.3897 44.5657 82.7034 45.0839 83.9719 44.9543C85.1649 44.8392 86.2672 44.1195 86.8561 43.1264C87.8528 41.4424 87.6867 39.1538 86.3427 37.6857C85.5122 36.7789 84.1833 36.3327 82.9299 36.5486V36.5486Z" fill="#3780FF"/>
<path d="M99.7505 35.4418C101.563 33.8297 104.356 33.2828 106.682 34.132C108.887 34.9236 110.291 36.9243 111.001 38.9825C107.724 40.2779 104.462 41.5589 101.185 42.8543C101.638 43.6747 102.333 44.4232 103.269 44.7254C104.583 45.1716 106.153 45.0133 107.256 44.1785C107.694 43.8618 108.041 43.4444 108.373 43.0414C109.204 43.574 110.034 44.0921 110.865 44.6247C109.687 46.3087 107.709 47.4889 105.579 47.676C103.224 47.9495 100.717 47.0859 99.1918 45.3299C96.6851 42.5664 96.9267 37.9318 99.7505 35.4418V35.4418ZM101.366 38.1045C100.853 38.8098 100.641 39.6734 100.657 40.5226C102.846 39.659 105.036 38.7954 107.225 37.9174C106.863 37.1114 105.987 36.622 105.096 36.4925C103.662 36.2478 102.167 36.9819 101.366 38.1045V38.1045Z" fill="#FA3913"/>
</svg>
